Coordinates																	
version=1																	
nRows=57																	
nColumns=18																	
inDegrees=yes																	
endheader																	
time	ground_thorax_rot_x	ground_thorax_rot_y	ground_thorax_rot_z	ground_thorax_tx	ground_thorax_ty	ground_thorax_tz	clav_prot	clav_elev	scapula_abduction	scapula_elevation	scapula_upward_rot	scapula_winging	plane_elv	shoulder_elv	axial_rot	elbow_flexion	pro_sup
5.34	-1.20290183	3.22589789	-6.64058678	-0.00423131	0.00403036	-0.00078352	-45.80837285	7.86301449	-33.19479498	-2.7265689	42.42719917	-12.63633399	24.56548167	61.84077975	-23.8779509	0	34.32
5.35	-1.32755162	3.19129462	-6.68846734	-0.00423131	0.00403036	-0.00078352	-45.53282499	7.43357614	-32.89489149	-2.95847472	42.09210142	-12.26958575	23.73812276	61.25006923	-21.64725494	0	34.32
5.36	-1.16207074	3.04295723	-6.59662876	-0.00423131	0.00403036	-0.00078352	-45.42979192	7.4095751	-32.75840317	-2.96389732	42.06808268	-12.19093216	23.60314678	60.32012208	-21.85810947	0	34.32
5.37	-1.24529262	3.25971706	-6.53304379	-0.00423131	0.00403036	-0.00078352	-45.31861602	7.12956123	-32.92717259	-3.07828385	41.49233577	-11.93798746	23.03171101	59.77483824	-19.93862692	0	34.32
5.38	-1.06233037	3.23091736	-6.50208577	-0.00423131	0.00403036	-0.00078352	-45.24698684	7.35823769	-33.14830348	-2.87862507	41.17794314	-11.90937348	23.13391135	58.88237318	-20.16607391	0	34.32
5.39	-1.22660176	3.55371888	-6.51320894	-0.00423131	0.00403036	-0.00078352	-45.41297793	7.3366234	-33.66761049	-2.85845008	40.78454644	-11.94502002	23.07157627	57.65253689	-19.56064233	0	34.32
5.4	-1.28209636	3.70557728	-6.50588569	-0.00423131	0.00403036	-0.00078352	-45.31322065	7.27033098	-33.83626109	-2.83977508	40.33663436	-11.78265489	22.6791024	56.69441347	-18.7553698	0	34.32
5.41	-1.2935055	3.83790861	-6.49146585	-0.00423131	0.00403036	-0.00078352	-45.22346789	7.10527839	-33.85460422	-2.91001127	40.05790607	-11.62542085	22.1546199	55.63847745	-18.17299083	0	34.32
5.42	-1.29129413	3.85141671	-6.47999229	-0.00423131	0.00403036	-0.00078352	-45.11652297	6.92217365	-33.8486121	-2.98974094	39.77007432	-11.44933816	21.87092883	54.58634621	-17.65034279	0	34.32
5.43	-1.10934184	3.65381666	-6.49664931	-0.00423131	0.00403036	-0.00078352	-45.00043229	6.97973018	-33.86139273	-2.91405234	39.5627163	-11.35517215	21.42270136	54.28965169	-29.02830286	0	34.32
5.44	-1.0245367	3.36653504	-6.48573264	-0.00423131	0.00403036	-0.00078352	-44.81551571	7.07859325	-33.92236461	-2.78103203	39.18179257	-11.19708962	21.79826237	53.5045774	-29.17476022	0	34.32
5.45	-1.03464954	3.56460829	-6.55077209	-0.00423131	0.00403036	-0.00078352	-45.01626391	7.0423045	-34.66181649	-2.73674247	38.54684561	-11.19952145	22.39763818	53.22025137	-32.03490787	0	34.32
5.46	-1.18259114	3.52013064	-6.49660544	-0.00423131	0.00403036	-0.00078352	-44.8883451	7.04211562	-34.71307061	-2.6834507	38.23516004	-11.05836633	22.23177131	52.46247866	-32.14905444	0	34.32
5.47	-1.26779813	3.62242197	-6.5280596	-0.00423131	0.00403036	-0.00078352	-44.7486064	6.93130412	-34.73002156	-2.69969869	37.88873297	-10.8699776	21.74009123	52.03917662	-33.55507744	0	34.32
5.48	-1.2193365	3.66385866	-6.60803471	-0.00423131	0.00403036	-0.00078352	-44.59817653	6.8512694	-34.58122951	-2.72445751	37.76190655	-10.72562134	21.23432408	51.43662418	-32.78296817	0	34.32
5.49	-1.23111004	3.54256776	-6.54421878	-0.00423131	0.00403036	-0.00078352	-44.37526406	6.69626123	-34.49670329	-2.75679836	37.369462	-10.46259841	21.15598395	50.85528869	-32.62407903	0	34.32
5.5	-0.86284153	3.42290092	-6.66300167	-0.00423131	0.00403036	-0.00078352	-44.21662832	6.74018337	-34.49828119	-2.67253882	37.08662715	-10.32066187	21.155128	50.42254732	-32.63246672	0	34.32
5.51	-1.21826047	3.07546539	-6.64421577	-0.00423131	0.00403036	-0.00078352	-43.83444593	6.47390017	-34.54619039	-2.68497681	36.14588862	-9.8172098	21.28645524	49.73478563	-32.27250254	0	34.32
5.52	-1.22123288	2.99797502	-6.67718633	-0.00423131	0.00403036	-0.00078352	-43.61650736	6.36211582	-34.69924189	-2.63856907	35.45658096	-9.50982552	21.22286829	49.20664911	-32.24940063	0	34.32
5.53	-1.17004518	3.06101928	-6.67402083	-0.00423131	0.00403036	-0.00078352	-43.4271291	6.08908836	-34.67739723	-2.73628919	34.97311806	-9.21416736	20.57228764	48.68354371	-32.07852532	0	34.32
5.54	-1.05887027	3.02817521	-6.67387287	-0.00423131	0.00403036	-0.00078352	-43.10768717	5.7629836	-34.25835618	-2.90052863	34.74957348	-8.87854765	19.31906835	48.12990853	-31.47389104	0	34.32
5.55	-0.96897324	2.89775397	-6.67393173	-0.00423131	0.00403036	-0.00078352	-42.78231652	5.48884622	-33.87909747	-3.02185551	34.48558262	-8.54814473	18.48794095	47.65283323	-31.13498284	0	34.32
5.56	-0.94495076	2.74546333	-6.70710672	-0.00423131	0.00403036	-0.00078352	-42.49565866	5.27690671	-33.66041391	-3.08464276	34.10808312	-8.23731822	18.03449338	47.1735544	-31.31152998	0	34.32
5.57	-0.83446136	2.66302716	-6.82592623	-0.00423131	0.00403036	-0.00078352	-42.34721799	5.09578745	-33.66976018	-3.13303086	33.70636002	-8.01131723	18.06600771	46.65184345	-31.08207933	0	34.32
5.58	-0.7896917	2.62228984	-6.71135785	-0.00423131	0.00403036	-0.00078352	-42.14681072	5.17773339	-33.78268735	-2.97356194	33.19339354	-7.81132032	18.0182442	45.93213102	-31.11445481	0	34.32
5.59	-0.37819635	2.57981399	-6.80493023	-0.00423131	0.00403036	-0.00078352	-42.00572127	5.22482027	-33.84949115	-2.86944585	32.84371603	-7.66850813	17.98537293	45.49081054	-31.12206549	0	34.32
5.6	-0.79014226	2.55474247	-6.62119202	-0.00423131	0.00403036	-0.00078352	-41.71542339	4.78597735	-34.02360752	-2.96969227	31.78616557	-7.14000438	17.84907425	44.69375575	-24.19552125	0	34.32
5.61	-0.76051457	2.26176395	-6.8288315	-0.00423131	0.00403036	-0.00078352	-41.52333462	4.33552598	-33.67804948	-3.24494542	31.64139252	-6.86501042	17.3449771	43.84351302	-24.59952676	0	34.32
5.62	-0.78395768	2.12449069	-6.81680787	-0.00423131	0.00403036	-0.00078352	-41.18095925	4.00581561	-33.23939061	-3.40315561	31.38436497	-6.51829663	15.86960692	43.3293924	-25.27046418	0	34.32
5.63	-0.71870878	2.15095475	-6.77597817	-0.00423131	0.00403036	-0.00078352	-40.92957768	3.94521477	-33.16029778	-3.34653023	30.94685654	-6.26649257	15.53601469	42.91325677	-21.30166346	0	34.32
5.64	-0.74407185	1.95346774	-6.76297697	-0.00423131	0.00403036	-0.00078352	-40.58691488	4.00539847	-32.75398588	-3.25545829	30.83832596	-6.07930639	14.00995345	42.59547044	-30.50601091	0	34.32
5.65	-0.45874846	1.90058648	-6.8901697	-0.00423131	0.00403036	-0.00078352	-40.47285197	4.0428564	-32.75598654	-3.17939338	30.61886937	-5.98073586	14.01878889	42.21335426	-30.51597301	0	34.32
5.66	-0.67259613	1.95545887	-6.71062639	-0.00423131	0.00403036	-0.00078352	-40.36441687	3.94445382	-33.02923099	-3.11830774	29.95912158	-5.74241716	14.26992885	41.19115852	-24.18232751	0	34.32
5.67	-0.51060761	1.84806234	-6.83886758	-0.00423131	0.00403036	-0.00078352	-40.2286715	3.7887488	-32.97930829	-3.16221931	29.66401172	-5.55715616	14.24537685	40.3218955	-24.39489523	0	34.32
5.68	-0.4265982	2.14038358	-6.78614438	-0.00423131	0.00403036	-0.00078352	-40.31647875	3.50927575	-33.26530211	-3.29943489	29.2985148	-5.43220756	13.63503047	39.5679992	-22.54491765	0	34.32
5.69	-0.53102885	2.30052797	-6.80471636	-0.00423131	0.00403036	-0.00078352	-40.40276047	3.16932697	-33.43350114	-3.50455045	29.06617729	-5.31663098	13.0210085	38.4134291	-21.3587607	0	34.32
5.7	-0.63369887	2.39914967	-6.75773391	-0.00423131	0.00403036	-0.00078352	-40.46539225	3.04325017	-33.66689949	-3.5491325	28.80145163	-5.24731622	13.01015343	37.36654798	-18.80069371	0	34.32
5.71	-0.77550704	2.48475216	-6.74122606	-0.00423131	0.00403036	-0.00078352	-40.56803858	3.00087522	-33.91514644	-3.55741627	28.64189472	-5.24990811	13.01572881	36.30428984	-17.18791314	0	34.32
5.72	-0.86194383	2.58175773	-6.71669247	-0.00423131	0.00403036	-0.00078352	-40.68628434	2.99408155	-34.18851089	-3.54432658	28.49672654	-5.27563417	13.06672788	35.31340633	-16.01389765	0	34.32
5.73	-0.92887332	2.63208091	-6.68473039	-0.00423131	0.00403036	-0.00078352	-40.83085069	2.90585742	-34.52333045	-3.57687174	28.2764834	-5.27175036	13.06740883	34.28032648	-15.23741233	0	34.32
5.74	-0.93504297	2.60605838	-6.66699114	-0.00423131	0.00403036	-0.00078352	-40.9518358	2.749887	-34.87404845	-3.63437906	27.94779747	-5.2080891	13.14035875	33.24474356	-14.54822617	0	34.32
5.75	-0.95314256	2.56507383	-6.66059474	-0.00423131	0.00403036	-0.00078352	-41.03622124	2.61195583	-35.20490788	-3.66740238	27.57804461	-5.12090846	13.29566625	32.12981281	-13.86632669	0	34.32
5.76	-1.0301432	2.51391	-6.69342426	-0.00423131	0.00403036	-0.00078352	-41.08946426	2.57386925	-35.51643418	-3.62816755	27.21953336	-5.05218012	13.45662917	31.00068478	-13.47218576	0	34.32
5.77	-1.12744863	2.59398545	-6.69530513	-0.00423131	0.00403036	-0.00078352	-41.1908276	2.72265924	-35.94174981	-3.46500521	26.89181534	-5.07707155	13.70750574	29.89896728	-13.12725207	0	34.32
5.78	-1.20001127	2.70426845	-6.72465718	-0.00423131	0.00403036	-0.00078352	-41.31634917	2.84125822	-36.35757452	-3.33476984	26.61284197	-5.11605582	13.87408201	28.90856242	-12.97747384	0	34.32
5.79	-1.20836079	2.89351398	-6.76492069	-0.00423131	0.00403036	-0.00078352	-41.44803708	2.85219153	-36.68139732	-3.29997969	26.42423647	-5.14573194	13.68831033	28.05861294	-12.93902027	0	34.32
5.8	-1.19642289	3.06977909	-6.86326374	-0.00423131	0.00403036	-0.00078352	-41.44808518	2.6685613	-36.75205891	-3.39052035	26.22478596	-5.03873124	12.69497843	27.50908615	-13.39866245	0	34.32
5.81	-1.13958259	3.24165104	-6.88379199	-0.00423131	0.00403036	-0.00078352	-41.42103249	2.6150029	-36.86778729	-3.37409079	25.96887358	-4.94493205	11.90524191	27.01194586	-13.49633669	0	34.32
5.82	-1.20396099	3.29494978	-6.79225781	-0.00423131	0.00403036	-0.00078352	-41.19176542	2.66243521	-36.9074113	-3.21179663	25.44397084	-4.70824926	10.70336992	27.04219043	-20.34007141	0	34.32
5.83	-1.12461417	3.29623392	-6.88432357	-0.00423131	0.00403036	-0.00078352	-41.24896226	2.72545262	-37.06168437	-3.15654363	25.37195085	-4.74130988	11.02466585	26.00326039	-18.10978394	0	34.32
5.84	-1.13712698	3.23280716	-6.93741905	-0.00423131	0.00403036	-0.00078352	-41.27045142	2.79612515	-37.20856042	-3.07973811	25.23819425	-4.74213087	11.16249008	24.94539192	-16.4885531	0	34.32
5.85	-1.06574184	3.1595842	-6.97175942	-0.00423131	0.00403036	-0.00078352	-41.23986715	2.82126812	-37.25821725	-3.03261934	25.11225728	-4.70225685	10.96852286	24.05068449	-15.17157944	0	34.32
5.86	-1.16884155	3.0438951	-6.91112185	-0.00423131	0.00403036	-0.00078352	-41.00162993	2.73060666	-37.01606756	-3.03420297	24.90948355	-4.49554629	9.46259363	23.28016226	-13.9044631	0	34.32
5.87	-1.17196859	2.95803722	-6.92799205	-0.00423131	0.00403036	-0.00078352	-40.90484054	2.67826893	-37.03587977	-3.00662575	24.6422565	-4.36129768	8.88682869	22.64875639	-12.91495158	0	34.32
5.88	-1.16269628	2.83444968	-6.9549945	-0.00423131	0.00403036	-0.00078352	-40.78202104	2.64105327	-37.07916179	-2.94742675	24.29055226	-4.19674692	8.51036497	22.21382184	-12.22519791	0	34.32
5.89	-1.11944314	2.67313866	-7.00231998	-0.00423131	0.00403036	-0.00078352	-40.61678436	2.59401352	-37.00269473	-2.90823587	24.01857925	-4.02686795	7.88316383	21.81740099	-11.70562794	0	34.32
5.9	-1.06686053	2.48040194	-7.07307442	-0.00423131	0.00403036	-0.00078352	-40.44446062	2.59426562	-36.82921481	-2.86756307	23.90087962	-3.90702033	6.99819479	21.21242382	-11.2194874	0	34.32
